# xmcd
#
# Track frame offsets:
#	150
#	15351
#	33044
#	46293
#	64503
#	79538
#	95715
#	106290
#	122080
#	139752
#	154580
#	174080
#	191365
#	205152
#	222223
#	237816
#	253286
#	266372
#
# Disc length: 3829 seconds
#
# Revision: 1
# Processed by: cddbd v1.5.2PL0 Copyright (c) Steve Scherf et al.
# Submitted via: audiograbber 1.83.01
#
DISCID=e10ef312
DTITLE=Various Artist - STC VOL 11
DYEAR=1900
DGENRE=COUNTRY
TTITLE0=Billy Ray Cyrus - Achy Breaky Heart
TTITLE1=Tractors - Baby Likes To Rock(Radio Mix)
TTITLE2=Brooks and Dunn - Brand New Man
TTITLE3=Faith Hill - Let Me Let Go
TTITLE4=Kathy Mattea - 18 Wheels And A Dozen Roses
TTITLE5=Charlie Daniels - Devil Went Down To Georgia
TTITLE6=Diamond Rio - Unbelievable
TTITLE7=Randy Travis - Forever and Ever Amen
TTITLE8=Michelle Wright - Take It Like A Man
TTITLE9=Bruce Guthro - Walk This Road
TTITLE10=Mac Davis - It's Hard To Be Humble
TTITLE11=Reba McEntire - Forever Love
TTITLE12=Mary Chapin Carpenter - Passionate Kisses
TTITLE13=Ray Price - For The Good Times
TTITLE14=Deana Carter - Absence Of The Heart
TTITLE15=Big House - Cold Outside
TTITLE16=Trisha Yearwood - Perfect Love
TTITLE17=Vince Gill - If You Ever Have Forever In Mind
EXTD=
EXTT0=
EXTT1=
EXTT2=
EXTT3=
EXTT4=
EXTT5=
EXTT6=
EXTT7=
EXTT8=
EXTT9=
EXTT10=
EXTT11=
EXTT12=
EXTT13=
EXTT14=
EXTT15=
EXTT16=
EXTT17=
PLAYORDER=
